# xmcd
#
# Track frame offsets:
#	150
#	9853
#	21075
#	35813
#	45236
#	56982
#	68413
#	80509
#	93120
#	117259
#	126699
#	139683
#	156531
#	169026
#	182508
#	195674
#	208163
#	220760
#	232411
#	248802
#
# Disc length: 3469 seconds
#
# Revision: 1
# Processed by: cddbd v1.5.2PL0 Copyright (c) Steve Scherf et al.
# Submitted via: audiograbber 1.83.01
#
DISCID=1c0d8b14
DTITLE=Renate Heilmeier - Wish You Best Christmas Ever (Too)
DYEAR=0
DGENRE=Christmas/Holiday
TTITLE0=Clarence Carter - Back Door Santa
TTITLE1=The Staple Singers - Who Took The Merry Out Of Christmas
TTITLE2=Binky Griptite - World Of Love
TTITLE3=Booker T. and The MG's - Winter Wonderland
TTITLE4=Sons Of Heaven - When Jesus Was Born
TTITLE5=Big John Greer - We Wanna See Santa Do The Mambo
TTITLE6=The Voices - Santa Claus Boogie
TTITLE7=Marianne Dissard and Amparo Sanchez - Je Et Tu Ne Croient Plus Au Pére No
TTITLE7=el
TTITLE8=The Waitresses - Christmas Wrapping
TTITLE9=The Ramones - Merry Christmas (I Don't Want To Fight Tonight)
TTITLE10=Coconami - Sleigh Ride
TTITLE11=The Flirtations - Christmas Time Is Here Again
TTITLE12=Carla Thomas - Gee Whiz, It's Christmas
TTITLE13=The Nic Nacs With Mickey Champion - Gonna Have A Merry Christmas
TTITLE14=Jimmy Witherspoon - How I Hate To See Xmas Come Around
TTITLE15=Ernest Tubb - Blue Christmas
TTITLE16=Bill Monroe And His Blue Grass Boys - Christmas Time's Coming
TTITLE17=Sonny Boy Williamson II - Sonny Boy's Christmas Blues
TTITLE18=The Band - Christmas Must Be Tonight
TTITLE19=The Cats And The Fiddle - Hep Cat's Holiday
EXTD=
EXTT0=
EXTT1=
EXTT2=
EXTT3=
EXTT4=
EXTT5=
EXTT6=
EXTT7=
EXTT8=
EXTT9=
EXTT10=
EXTT11=
EXTT12=
EXTT13=
EXTT14=
EXTT15=
EXTT16=
EXTT17=
EXTT18=
EXTT19=
PLAYORDER=
